<?xml version="1.0" encoding="utf-8"?>
<!-- Generator: Adobe Illustrator 26.5.0, SVG Export Plug-In . SVG Version: 6.00 Build 0)  -->
<svg version="1.1" id="Layer_2_00000114032020967691506480000010525342701450833817_"
	 xmlns="http://www.w3.org/2000/svg" xmlns:xlink="http://www.w3.org/1999/xlink" x="0px" y="0px" viewBox="0 0 311.5 110.6"
	 style="enable-background:new 0 0 311.5 110.6;" xml:space="preserve">
<style type="text/css">
	.st0{fill:#0F4069;}
	.st1{fill:#FFFFFF;}
</style>
<g id="Layer_1-2">
	<g>
		<path class="st0" d="M303.8,83.4c4.9-8.2,7.7-17.8,7.7-28.1c0-10.5-2.9-20.3-8-28.6l-18.5,28L303.8,83.4L303.8,83.4z"/>
		<path class="st0" d="M244.9,45.7c-0.6-1.5-1.4-2.8-2.3-3.8c-1-1-2-1.8-3.2-2.4c-1.2-0.6-2.4-1-3.6-1.2c-1.3-0.2-2.5-0.3-3.6-0.3
			c-2.5,0-4.6,0.5-6.4,1.4c-1.8,1-3.2,2.2-4.4,3.8c-1.1,1.5-2,3.3-2.5,5.3c-0.6,2-0.8,3.9-0.8,5.8c0,2.2,0.3,4.2,1,6.2
			c0.6,2,1.6,3.7,2.8,5.3c1.2,1.5,2.7,2.7,4.5,3.6c1.8,0.9,3.8,1.4,6,1.4c1.2,0,2.4-0.1,3.6-0.4c1.2-0.3,2.4-0.7,3.5-1.3
			c1.1-0.6,2.2-1.4,3.1-2.4c0.9-1,1.6-2.1,2.1-3.5l12.2,7.3l10.3-15.7L256,37.8L244.9,45.7L244.9,45.7z"/>
		<path class="st0" d="M276.1,66.6l-10.6,18.7H247l2.9-4.4c-0.7,0.4-1.3,0.8-2,1.1c-2.4,1.2-5,2.2-7.8,2.8c-2.8,0.6-5.5,1-8.1,1
			c-4.6,0-8.8-0.9-12.7-2.8c-3.8-1.8-7.1-4.3-9.9-7.3c-2.8-3-4.9-6.5-6.4-10.3c-1-2.6-1.7-5.2-2-7.9c1.2,29.5,25.5,53,55.2,53
			c19.4,0,36.5-10,46.4-25.2h-15.9C286.7,85.4,276.1,66.6,276.1,66.6z"/>
		<path class="st0" d="M209.1,32.6c2.7-2.9,6.1-5.3,10-7.1c3.9-1.8,8.4-2.7,13.4-2.7c6,0,11.2,1.2,15.6,3.7c0.2,0.1,0.5,0.3,0.7,0.4
			l-2.5-3.8h18.5l11.3,19.6l11.3-19.6h13.8c-10-14-26.4-23.2-45-23.2c-27.5,0-50.4,20.1-54.6,46.5c0.3-1.3,0.7-2.6,1.2-3.9
			C204.3,38.9,206.3,35.6,209.1,32.6"/>
		<path class="st1" d="M285,54.7l18.5-28c-0.7-1.2-1.5-2.4-2.3-3.5h-13.8l-11.3,19.6l-11.3-19.6h-18.5l2.5,3.8
			c-0.2-0.1-0.5-0.3-0.7-0.4c-4.4-2.5-9.6-3.7-15.6-3.7c-5,0-9.5,0.9-13.4,2.7c-3.9,1.8-7.2,4.2-10,7.1c-2.7,2.9-4.8,6.2-6.3,9.9
			c-0.5,1.3-0.9,2.6-1.2,3.9c-0.5,2.9-0.7,5.8-0.7,8.8c0,0.8,0,1.5,0.1,2.3c0.3,2.7,1,5.3,2,7.9c1.5,3.9,3.7,7.3,6.4,10.3
			c2.8,3,6.1,5.5,9.9,7.3c3.8,1.8,8,2.8,12.7,2.8c2.6,0,5.3-0.3,8.1-1c2.8-0.6,5.4-1.6,7.8-2.8c0.7-0.4,1.4-0.7,2-1.1l-2.9,4.4h18.5
			l10.6-18.7l10.6,18.7h15.9c0.4-0.7,0.8-1.3,1.2-2C303.8,83.4,285,54.7,285,54.7z M256.8,70.4l-12.2-7.3c-0.5,1.4-1.2,2.6-2.1,3.5
			c-0.9,1-1.9,1.8-3.1,2.4c-1.1,0.6-2.3,1-3.5,1.3c-1.2,0.3-2.4,0.4-3.6,0.4c-2.2,0-4.2-0.5-6-1.4c-1.8-0.9-3.3-2.1-4.5-3.6
			c-1.2-1.5-2.2-3.3-2.8-5.3c-0.6-2-1-4.1-1-6.2c0-1.9,0.3-3.9,0.8-5.8c0.6-2,1.4-3.7,2.5-5.3c1.1-1.5,2.6-2.8,4.4-3.8
			c1.8-1,3.9-1.4,6.4-1.4c1.2,0,2.4,0.1,3.6,0.3c1.3,0.2,2.5,0.6,3.6,1.2c1.2,0.6,2.2,1.4,3.2,2.4c1,1,1.7,2.2,2.3,3.8l11-7.9
			l11.1,16.9L256.8,70.4L256.8,70.4z"/>
		<path class="st0" d="M0,53.2c0-1.5,0.3-3,0.8-4.5s1.4-2.8,2.4-4c1.1-1.2,2.3-2.1,3.9-2.9c1.5-0.7,3.3-1.1,5.2-1.1
			c2.3,0,4.3,0.5,6,1.5c1.7,1,2.9,2.3,3.7,3.9l-3.7,2.6c-0.3-0.7-0.7-1.3-1.2-1.8c-0.5-0.5-1-0.9-1.5-1.1c-0.5-0.3-1.1-0.5-1.7-0.6
			c-0.6-0.1-1.2-0.2-1.7-0.2c-1.2,0-2.3,0.2-3.2,0.7c-0.9,0.5-1.7,1.1-2.3,1.9c-0.6,0.8-1,1.7-1.4,2.7c-0.3,1-0.5,2-0.5,3
			c0,1.1,0.2,2.2,0.5,3.2c0.4,1,0.9,1.9,1.5,2.7c0.6,0.8,1.4,1.4,2.3,1.9c0.9,0.5,1.9,0.7,3,0.7c0.6,0,1.1-0.1,1.8-0.2
			c0.6-0.1,1.2-0.4,1.7-0.7c0.6-0.3,1.1-0.7,1.5-1.2c0.5-0.5,0.8-1.1,1.1-1.7l4,2.3c-0.4,0.9-1,1.8-1.7,2.5
			c-0.7,0.7-1.6,1.3-2.5,1.8c-0.9,0.5-1.9,0.9-3,1.1c-1.1,0.3-2.1,0.4-3.1,0.4c-1.8,0-3.4-0.4-4.9-1.1c-1.5-0.8-2.8-1.7-3.8-2.9
			c-1.1-1.2-1.9-2.6-2.5-4.1C0.3,56.4,0,54.8,0,53.2"/>
		<path class="st0" d="M35.2,66.1c-1.8,0-3.5-0.4-5-1.1c-1.5-0.7-2.8-1.7-3.8-2.9c-1.1-1.2-1.9-2.5-2.5-4.1C23.3,56.6,23,55,23,53.4
			c0-1.7,0.3-3.3,0.9-4.8c0.6-1.5,1.5-2.9,2.6-4s2.4-2.1,3.9-2.8c1.5-0.7,3.1-1,4.9-1c1.8,0,3.5,0.4,4.9,1.1
			c1.5,0.7,2.8,1.7,3.8,2.9c1.1,1.2,1.9,2.6,2.5,4.1c0.6,1.5,0.9,3.1,0.9,4.6c0,1.7-0.3,3.3-0.9,4.8c-0.6,1.5-1.5,2.9-2.5,4
			c-1.1,1.2-2.4,2.1-3.9,2.8C38.6,65.8,37,66.1,35.2,66.1 M28,53.4c0,1.1,0.2,2.1,0.5,3.1c0.3,1,0.8,1.9,1.4,2.7
			c0.6,0.8,1.4,1.4,2.3,1.9c0.9,0.5,1.9,0.7,3.1,0.7c1.2,0,2.2-0.2,3.1-0.7c0.9-0.5,1.7-1.1,2.3-1.9c0.6-0.8,1.1-1.7,1.4-2.7
			c0.3-1,0.5-2,0.5-3c0-1.1-0.2-2.1-0.5-3.1c-0.3-1-0.8-1.9-1.4-2.7c-0.6-0.8-1.4-1.4-2.3-1.8c-0.9-0.5-1.9-0.7-3-0.7
			c-1.2,0-2.2,0.2-3.1,0.7c-0.9,0.5-1.7,1.1-2.3,1.9c-0.6,0.8-1.1,1.7-1.4,2.7C28.1,51.4,28,52.4,28,53.4"/>
		<polygon class="st0" points="70.7,65.9 70.7,49.4 64.2,61.7 61.6,61.7 55.1,49.4 55.1,65.9 50.3,65.9 50.3,40.9 55.5,40.9 
			62.9,55.2 70.4,40.9 75.5,40.9 75.5,65.9 		"/>
		<polygon class="st0" points="100.3,65.9 100.3,49.4 93.8,61.7 91.2,61.7 84.7,49.4 84.7,65.9 79.9,65.9 79.9,40.9 85.1,40.9 
			92.5,55.2 99.9,40.9 105.1,40.9 105.1,65.9 		"/>
		<path class="st0" d="M120,61.8c1.1,0,2.1-0.2,2.9-0.7c0.8-0.5,1.4-1.1,1.9-1.8c0.5-0.8,0.8-1.6,1-2.6c0.2-1,0.3-2,0.3-3V40.9h4.8
			v12.7c0,1.7-0.2,3.3-0.6,4.8c-0.4,1.5-1.1,2.8-1.9,3.9c-0.9,1.1-2,2-3.4,2.7c-1.4,0.7-3,1-5,1c-2,0-3.7-0.3-5.1-1
			c-1.4-0.7-2.5-1.6-3.4-2.7c-0.9-1.1-1.5-2.5-1.9-4c-0.4-1.5-0.6-3.1-0.6-4.7V40.9h4.9v12.7c0,1.1,0.1,2.1,0.3,3
			c0.2,1,0.5,1.8,1,2.6c0.5,0.8,1.1,1.4,1.9,1.8C117.9,61.6,118.9,61.8,120,61.8"/>
		<polygon class="st0" points="139.8,49.9 139.8,65.9 135,65.9 135,40.9 138.8,40.9 151.8,57.3 151.8,41 156.6,41 156.6,65.9 
			152.7,65.9 		"/>
		<rect x="161" y="40.9" class="st0" width="4.9" height="25"/>
		<polygon class="st0" points="188.9,45.2 180.9,45.2 180.9,65.9 176,65.9 176,45.2 168,45.2 168,40.9 188.9,40.9 		"/>
		<polygon class="st0" points="193.9,40.9 200.1,53 206.3,40.9 211.6,40.9 202.5,57.2 202.5,65.9 197.7,65.9 197.7,57.1 188.6,40.9 
					"/>
	</g>
</g>
</svg>
